<svg width="16" height="16" viewBox="0 0 16 16" fill="none" xmlns="http://www.w3.org/2000/svg">
<g clip-path="url(#clip0_1_61)">
<path d="M6.66667 1.33333V2.66666" stroke="#364153" stroke-width="1.33333" stroke-linecap="round" stroke-linejoin="round"/>
<path d="M9.33333 1.33333V2.66666" stroke="#364153" stroke-width="1.33333" stroke-linecap="round" stroke-linejoin="round"/>
<path d="M10.6667 5.33333C10.8435 5.33333 11.013 5.40357 11.1381 5.52859C11.2631 5.65361 11.3333 5.82318 11.3333 5.99999V11.3333C11.3333 12.0406 11.0524 12.7188 10.5523 13.2189C10.0522 13.719 9.37391 14 8.66667 14H4.66667C3.95942 14 3.28115 13.719 2.78105 13.2189C2.28095 12.7188 2 12.0406 2 11.3333V5.99999C2 5.82318 2.07024 5.65361 2.19526 5.52859C2.32029 5.40357 2.48986 5.33333 2.66667 5.33333H12C12.7072 5.33333 13.3855 5.61428 13.8856 6.11438C14.3857 6.61447 14.6667 7.29275 14.6667 7.99999C14.6667 8.70724 14.3857 9.38552 13.8856 9.88561C13.3855 10.3857 12.7072 10.6667 12 10.6667H11.3333" stroke="#364153" stroke-width="1.33333" stroke-linecap="round" stroke-linejoin="round"/>
<path d="M4 1.33333V2.66666" stroke="#364153" stroke-width="1.33333" stroke-linecap="round" stroke-linejoin="round"/>
</g>
<defs>
<clipPath id="clip0_1_61">
<rect width="16" height="16" fill="white"/>
</clipPath>
</defs>
</svg>
