<svg width="16" height="16" viewBox="0 0 16 16" fill="none" xmlns="http://www.w3.org/2000/svg">
<g clip-path="url(#clip0_1_75)">
<path d="M13.3333 14V8.66666C13.3333 8.31304 13.1928 7.9739 12.9428 7.72385C12.6928 7.4738 12.3536 7.33333 12 7.33333H3.99999C3.64637 7.33333 3.30723 7.4738 3.05718 7.72385C2.80713 7.9739 2.66666 8.31304 2.66666 8.66666V14" stroke="#364153" stroke-width="1.33333" stroke-linecap="round" stroke-linejoin="round"/>
<path d="M2.66666 10.6667C2.66666 10.6667 2.99999 10 3.99999 10C4.99999 10 5.66666 11.3333 6.66666 11.3333C7.66666 11.3333 8.33332 10 9.33332 10C10.3333 10 11 11.3333 12 11.3333C13 11.3333 13.3333 10.6667 13.3333 10.6667" stroke="#364153" stroke-width="1.33333" stroke-linecap="round" stroke-linejoin="round"/>
<path d="M1.33334 14H14.6667" stroke="#364153" stroke-width="1.33333" stroke-linecap="round" stroke-linejoin="round"/>
<path d="M4.66666 5.33333V7.33333" stroke="#364153" stroke-width="1.33333" stroke-linecap="round" stroke-linejoin="round"/>
<path d="M8 5.33333V7.33333" stroke="#364153" stroke-width="1.33333" stroke-linecap="round" stroke-linejoin="round"/>
<path d="M11.3333 5.33333V7.33333" stroke="#364153" stroke-width="1.33333" stroke-linecap="round" stroke-linejoin="round"/>
<path d="M4.66666 2.66667H4.67332" stroke="#364153" stroke-width="1.33333" stroke-linecap="round" stroke-linejoin="round"/>
<path d="M8 2.66667H8.00667" stroke="#364153" stroke-width="1.33333" stroke-linecap="round" stroke-linejoin="round"/>
<path d="M11.3333 2.66667H11.34" stroke="#364153" stroke-width="1.33333" stroke-linecap="round" stroke-linejoin="round"/>
</g>
<defs>
<clipPath id="clip0_1_75">
<rect width="16" height="16" fill="white"/>
</clipPath>
</defs>
</svg>
